<svg width="23" height="27" viewBox="0 0 36 40" fill="none" xmlns="http://www.w3.org/2000/svg">
<path fill-rule="evenodd" clip-rule="evenodd" d="M19.4262 0.520648L33.9279 10.0277C34.8247 10.6154 35.3647 11.6155 35.3647 12.6877V31.7016C35.3647 32.7738 34.8247 33.7738 33.9279 34.3617L26.3309 39.3421C25.3536 39.9828 24.1036 40.0359 23.0755 39.4806C22.0472 38.9251 21.4064 37.8507 21.4064 36.6821V18.9323L17.6824 16.4909L13.9583 18.9323V36.6821C13.9583 37.8507 13.3175 38.9251 12.2893 39.4806C11.2611 40.0359 10.0111 39.9828 9.03384 39.3421L1.43684 34.3617C0.540199 33.7738 0 32.7738 0 31.7016V12.6877C0 11.6155 0.540199 10.6154 1.43684 10.0277L15.9386 0.520648C16.9975 -0.173549 18.3673 -0.173549 19.4262 0.520648ZM17.6824 3.1807L3.18066 12.6877V31.7016L10.7777 36.6821V17.2142L17.6824 12.6877L24.5871 17.2142V36.6821L32.1841 31.7016V12.6877L17.6824 3.1807Z" fill="#0066FF"/>
</svg>
